Coordinates
version=1
nRows=4
nColumns=63
inDegrees=yes

Units are S.I. units (second, meters, Newtons, ...)
If the header above contains a line with 'inDegrees', this indicates whether rotational values are in degrees (yes) or radians (no).

endheader
time	pelvis_tilt	pelvis_list	pelvis_rotation	pelvis_tx	pelvis_ty	pelvis_tz	hip_flexion_r	hip_adduction_r	hip_rotation_r	knee_angle_r	knee_angle_r_beta	ankle_angle_r	subtalar_angle_r	mtp_angle_r	hip_flexion_l	hip_adduction_l	hip_rotation_l	knee_angle_l	knee_angle_l_beta	ankle_angle_l	subtalar_angle_l	mtp_angle_l	L5_S1_Flex_Ext	L5_S1_Lat_Bending	L5_S1_axial_rotation	L4_L5_Flex_Ext	L4_L5_Lat_Bending	L4_L5_axial_rotation	L3_L4_Flex_Ext	L3_L4_Lat_Bending	L3_L4_axial_rotation	L2_L3_Flex_Ext	L2_L3_Lat_Bending	L2_L3_axial_rotation	L1_L2_Flex_Ext	L1_L2_Lat_Bending	L1_L2_axial_rotation	L1_T12_Flex_Ext	L1_T12_Lat_Bending	L1_T12_axial_rotation	Abs_r3	Abs_r2	Abs_r1	Abs_t1	Abs_t2	neck_flexion	neck_bending	neck_rotation	arm_flex_r	arm_add_r	arm_rot_r	elbow_flex_r	pro_sup_r	wrist_flex_r	wrist_dev_r	arm_flex_l	arm_add_l	arm_rot_l	elbow_flex_l	pro_sup_l	wrist_flex_l	wrist_dev_l
      3.65000000	      4.06911795	     -6.18778517	     99.25470694	      0.24052903	      1.02582943	      0.41752237	     -3.60136901	      3.25952714	      3.55114036	      7.43502538	      0.12976567	     27.68030762	     -7.63699346	      0.00000000	     -6.17806057	     -3.31024599	      5.20514857	      1.91276553	      0.03338406	     29.79022694	     -2.08394317	      0.00000000	      0.04443951	      0.36094681	     -1.41276540	      0.08252861	      0.48005925	     -1.50106323	      0.07300967	      0.87760607	     -1.50106323	      0.05078991	      0.87760607	     -1.23616972	      0.04126653	      0.73604273	     -1.14787189	      0.02539274	      0.55910661	     -1.05957405	      0.31742697	      4.08310248	     -7.85737731	      0.00000000	      0.00000000	     27.85314273	      1.25214882	      3.57665378	     21.82561861	    -30.52841559	     93.00492892	     10.19809687	     18.43601926	      0.78985610	      1.35467043	      5.03119173	    -38.73987822	     93.99749407	      1.42690403	      4.32133274	     -5.46005269	     -5.42193057
      3.66666667	      4.11949154	     -6.29261799	     99.68085259	      0.24024716	      1.02592333	      0.41805789	     -3.44575732	      3.27768902	      2.36610055	      7.49991141	      0.13089815	     27.78861610	     -6.56004789	      0.00000000	     -5.87853291	     -3.37600432	      6.02707354	      2.14121318	      0.03737122	     29.84086675	     -2.59080884	      0.00000000	      0.05844415	      0.36917627	     -1.49502681	      0.10853664	      0.49100444	     -1.58846598	      0.09601790	      0.89761518	     -1.58846598	      0.06679582	      0.89761518	     -1.30814846	      0.05427124	      0.75282425	     -1.21470928	      0.03339499	      0.57185404	     -1.12127010	      0.41746074	      4.17619578	     -8.31489059	      0.00000000	      0.00000000	     27.84554247	      1.22113608	      3.86392156	     22.58996642	    -28.49292877	    110.94244908	      6.61850041	      8.87209810	      3.23970705	     -0.07663187	      6.05860027	    -38.00093599	     93.20985341	      1.47044195	      3.16547506	     -4.99011326	     -6.26720740
      3.68333333	      4.17620209	     -6.25125275	     99.74494752	      0.24053544	      1.02637740	      0.41885768	     -3.40242451	      3.36514060	      2.33253998	      7.59023775	      0.13247464	     27.66506776	     -6.65717450	      0.00000000	     -5.73648126	     -3.45460661	      6.09353054	      2.41140612	      0.04208698	     29.90050271	     -2.48216134	      0.00000000	      0.05654529	      0.37808402	     -1.42462589	      0.10501026	      0.50285175	     -1.51366501	      0.09289826	      0.91927348	     -1.51366501	      0.06462561	      0.91927348	     -1.24654766	      0.05250796	      0.77098893	     -1.15750854	      0.03230998	      0.58565215	     -1.06846942	      0.40389735	      4.27696204	     -7.92334182	      0.00000000	      0.00000000	     27.76765435	      0.60323681	      3.28648770	     22.02784650	    -27.12348995	    113.35408640	      4.80791241	     11.16035222	      3.60035036	     -1.10890025	      7.79190535	    -37.00054027	     92.92307949	      1.51068432	      2.66817430	     -4.60203182	     -7.27873231
      3.70000000	      4.29662866	     -6.06505621	     99.78172528	      0.24068940	      1.02715775	      0.41988720	     -3.47899102	      3.51985261	      2.28340316	      7.70948886	      0.13455596	     27.46133804	     -6.67834269	      0.00000000	     -5.71033594	     -3.60348333	      6.07691821	      2.71476133	      0.04738152	     29.87737474	     -2.42396282	      0.00000000	      0.04072623	      0.40188162	     -1.29196013	      0.07563268	      0.53450256	     -1.37270764	      0.06690912	      0.97713498	     -1.37270764	      0.04654601	      0.97713498	     -1.13046512	      0.03781838	      0.81951701	     -1.04971761	      0.02327097	      0.62251463	     -0.96897010	      0.29090338	      4.54616529	     -7.18549467	      0.00000000	      0.00000000	     27.59392421	     -0.28528219	      2.48928310	     21.16629590	    -25.87658673	    114.22716730	      3.43415121	     11.49108349	      3.93934000	     -2.09883222	      9.92323763	    -35.57575713	     94.03719199	      1.41197144	      2.37874208	     -4.25811354	     -8.47122608
